<?xml version="1.0" encoding="UTF-8" ?>
<svg version="1.1" width="1400" height="500" xmlns="http://www.w3.org/2000/svg" shape-rendering="crispEdges">
<rect x="550" y="50" width="50" height="50" fill="#FFFFFF" />
<rect x="600" y="50" width="50" height="50" fill="#FFFFFF" />
<rect x="650" y="50" width="50" height="50" fill="#FFFFFF" />
<rect x="700" y="50" width="50" height="50" fill="#FFFFFF" />
<rect x="750" y="50" width="50" height="50" fill="#FFFFFF" />
<rect x="800" y="50" width="50" height="50" fill="#FFFFFF" />
<rect x="850" y="50" width="50" height="50" fill="#FFFFFF" />
<rect x="900" y="50" width="50" height="50" fill="#FFFFFF" />
<rect x="950" y="50" width="50" height="50" fill="#FFFFFF" />
<rect x="1000" y="50" width="50" height="50" fill="#FFFFFF" />
<rect x="1050" y="50" width="50" height="50" fill="#FFFFFF" />
<rect x="1100" y="50" width="50" height="50" fill="#FFFFFF" />
<rect x="1150" y="50" width="50" height="50" fill="#FFFFFF" />
<rect x="1200" y="50" width="50" height="50" fill="#FFFFFF" />
<rect x="1250" y="50" width="50" height="50" fill="#FFFFFF" />
<rect x="1300" y="50" width="50" height="50" fill="#FFFFFF" />
<rect x="550" y="100" width="50" height="50" fill="#FFFFFF" />
<rect x="600" y="100" width="50" height="50" fill="#FFFFFF" />
<rect x="650" y="100" width="50" height="50" fill="#FFFFFF" />
<rect x="700" y="100" width="50" height="50" fill="#FFFFFF" />
<rect x="750" y="100" width="50" height="50" fill="#FFFFFF" />
<rect x="800" y="100" width="50" height="50" fill="#FFFFFF" />
<rect x="850" y="100" width="50" height="50" fill="#FFFFFF" />
<rect x="900" y="100" width="50" height="50" fill="#FFFFFF" />
<rect x="950" y="100" width="50" height="50" fill="#FFFFFF" />
<rect x="1000" y="100" width="50" height="50" fill="#FFFFFF" />
<rect x="1050" y="100" width="50" height="50" fill="#FFFFFF" />
<rect x="1100" y="100" width="50" height="50" fill="#FFFFFF" />
<rect x="1150" y="100" width="50" height="50" fill="#FFFFFF" />
<rect x="1200" y="100" width="50" height="50" fill="#FFFFFF" />
<rect x="1250" y="100" width="50" height="50" fill="#FFFFFF" />
<rect x="1300" y="100" width="50" height="50" fill="#FFFFFF" />
<rect x="550" y="150" width="50" height="50" fill="#FFFFFF" />
<rect x="600" y="150" width="50" height="50" fill="#FFFFFF" />
<rect x="650" y="150" width="50" height="50" fill="#FFFFFF" />
<rect x="700" y="150" width="50" height="50" fill="#FFFFFF" />
<rect x="750" y="150" width="50" height="50" fill="#FFFFFF" />
<rect x="800" y="150" width="50" height="50" fill="#FFFFFF" />
<rect x="850" y="150" width="50" height="50" fill="#FFFFFF" />
<rect x="900" y="150" width="50" height="50" fill="#FFFFFF" />
<rect x="950" y="150" width="50" height="50" fill="#FFFFFF" />
<rect x="1000" y="150" width="50" height="50" fill="#FFFFFF" />
<rect x="1050" y="150" width="50" height="50" fill="#FFFFFF" />
<rect x="1100" y="150" width="50" height="50" fill="#FFFFFF" />
<rect x="1150" y="150" width="50" height="50" fill="#FFFFFF" />
<rect x="1200" y="150" width="50" height="50" fill="#FFFFFF" />
<rect x="1250" y="150" width="50" height="50" fill="#FFFFFF" />
<rect x="1300" y="150" width="50" height="50" fill="#FFFFFF" />
<rect x="50" y="200" width="50" height="50" fill="#FFFFFF" />
<rect x="100" y="200" width="50" height="50" fill="#FFFFFF" />
<rect x="150" y="200" width="50" height="50" fill="#FFFFFF" />
<rect x="200" y="200" width="50" height="50" fill="#FFFFFF" />
<rect x="250" y="200" width="50" height="50" fill="#FFFFFF" />
<rect x="300" y="200" width="50" height="50" fill="#FFFFFF" />
<rect x="350" y="200" width="50" height="50" fill="#FFFFFF" />
<rect x="400" y="200" width="50" height="50" fill="#FFFFFF" />
<rect x="450" y="200" width="50" height="50" fill="#FFFFFF" />
<rect x="500" y="200" width="50" height="50" fill="#FFFFFF" />
<rect x="550" y="200" width="50" height="50" fill="#FFFFFF" />
<rect x="600" y="200" width="50" height="50" fill="#FFFFFF" />
<rect x="650" y="200" width="50" height="50" fill="#FFFFFF" />
<rect x="700" y="200" width="50" height="50" fill="#FFFFFF" />
<rect x="750" y="200" width="50" height="50" fill="#FFFFFF" />
<rect x="800" y="200" width="50" height="50" fill="#FFFFFF" />
<rect x="850" y="200" width="50" height="50" fill="#FFFFFF" />
<rect x="900" y="200" width="50" height="50" fill="#FFFFFF" />
<rect x="950" y="200" width="50" height="50" fill="#FFFFFF" />
<rect x="1000" y="200" width="50" height="50" fill="#FFFFFF" />
<rect x="1050" y="200" width="50" height="50" fill="#FFFFFF" />
<rect x="1100" y="200" width="50" height="50" fill="#FFFFFF" />
<rect x="1150" y="200" width="50" height="50" fill="#FFFFFF" />
<rect x="1200" y="200" width="50" height="50" fill="#FFFFFF" />
<rect x="1250" y="200" width="50" height="50" fill="#FFFFFF" />
<rect x="1300" y="200" width="50" height="50" fill="#FFFFFF" />
<rect x="50" y="250" width="50" height="50" fill="#FFFFFF" />
<rect x="100" y="250" width="50" height="50" fill="#FFFFFF" />
<rect x="150" y="250" width="50" height="50" fill="#FFFFFF" />
<rect x="200" y="250" width="50" height="50" fill="#FFFFFF" />
<rect x="250" y="250" width="50" height="50" fill="#FFFFFF" />
<rect x="300" y="250" width="50" height="50" fill="#FFFFFF" />
<rect x="350" y="250" width="50" height="50" fill="#FFFFFF" />
<rect x="400" y="250" width="50" height="50" fill="#FFFFFF" />
<rect x="450" y="250" width="50" height="50" fill="#FFFFFF" />
<rect x="500" y="250" width="50" height="50" fill="#FFFFFF" />
<rect x="550" y="250" width="50" height="50" fill="#FFFFFF" />
<rect x="600" y="250" width="50" height="50" fill="#FFFFFF" />
<rect x="650" y="250" width="50" height="50" fill="#FFFFFF" />
<rect x="700" y="250" width="50" height="50" fill="#FFFFFF" />
<rect x="750" y="250" width="50" height="50" fill="#FFFFFF" />
<rect x="800" y="250" width="50" height="50" fill="#FFFFFF" />
<rect x="850" y="250" width="50" height="50" fill="#FFFFFF" />
<rect x="900" y="250" width="50" height="50" fill="#FFFFFF" />
<rect x="950" y="250" width="50" height="50" fill="#FFFFFF" />
<rect x="1000" y="250" width="50" height="50" fill="#C3C3C3" />
<rect x="1050" y="250" width="50" height="50" fill="#C3C3C3" />
<rect x="1100" y="250" width="50" height="50" fill="#C3C3C3" />
<rect x="1150" y="250" width="50" height="50" fill="#C3C3C3" />
<rect x="1200" y="250" width="50" height="50" fill="#C3C3C3" />
<rect x="1250" y="250" width="50" height="50" fill="#C3C3C3" />
<rect x="1300" y="250" width="50" height="50" fill="#C3C3C3" />
<rect x="50" y="300" width="50" height="50" fill="#FFFFFF" />
<rect x="100" y="300" width="50" height="50" fill="#FFFFFF" />
<rect x="150" y="300" width="50" height="50" fill="#FFFFFF" />
<rect x="200" y="300" width="50" height="50" fill="#FFFFFF" />
<rect x="250" y="300" width="50" height="50" fill="#FFFFFF" />
<rect x="300" y="300" width="50" height="50" fill="#FFFFFF" />
<rect x="350" y="300" width="50" height="50" fill="#FFFFFF" />
<rect x="400" y="300" width="50" height="50" fill="#FFFFFF" />
<rect x="450" y="300" width="50" height="50" fill="#FFFFFF" />
<rect x="500" y="300" width="50" height="50" fill="#FFFFFF" />
<rect x="550" y="300" width="50" height="50" fill="#FFFFFF" />
<rect x="600" y="300" width="50" height="50" fill="#FFFFFF" />
<rect x="650" y="300" width="50" height="50" fill="#FFFFFF" />
<rect x="700" y="300" width="50" height="50" fill="#FFFFFF" />
<rect x="750" y="300" width="50" height="50" fill="#FFFFFF" />
<rect x="800" y="300" width="50" height="50" fill="#FFFFFF" />
<rect x="850" y="300" width="50" height="50" fill="#FFFFFF" />
<rect x="900" y="300" width="50" height="50" fill="#FFFFFF" />
<rect x="950" y="300" width="50" height="50" fill="#FFFFFF" />
<rect x="1000" y="300" width="50" height="50" fill="#C3C3C3" />
<rect x="1050" y="300" width="50" height="50" fill="#C3C3C3" />
<rect x="1100" y="300" width="50" height="50" fill="#C3C3C3" />
<rect x="1150" y="300" width="50" height="50" fill="#C3C3C3" />
<rect x="1200" y="300" width="50" height="50" fill="#C3C3C3" />
<rect x="1250" y="300" width="50" height="50" fill="#C3C3C3" />
<rect x="1300" y="300" width="50" height="50" fill="#C3C3C3" />
<rect x="50" y="350" width="50" height="50" fill="#FFFFFF" />
<rect x="100" y="350" width="50" height="50" fill="#FFFFFF" />
<rect x="150" y="350" width="50" height="50" fill="#FFFFFF" />
<rect x="200" y="350" width="50" height="50" fill="#FFFFFF" />
<rect x="250" y="350" width="50" height="50" fill="#FFFFFF" />
<rect x="300" y="350" width="50" height="50" fill="#FFFFFF" />
<rect x="350" y="350" width="50" height="50" fill="#FFFFFF" />
<rect x="400" y="350" width="50" height="50" fill="#FFFFFF" />
<rect x="450" y="350" width="50" height="50" fill="#FFFFFF" />
<rect x="500" y="350" width="50" height="50" fill="#FFFFFF" />
<rect x="550" y="350" width="50" height="50" fill="#FFFFFF" />
<rect x="600" y="350" width="50" height="50" fill="#FFFFFF" />
<rect x="650" y="350" width="50" height="50" fill="#FFFFFF" />
<rect x="700" y="350" width="50" height="50" fill="#FFFFFF" />
<rect x="750" y="350" width="50" height="50" fill="#FFFFFF" />
<rect x="800" y="350" width="50" height="50" fill="#FFFFFF" />
<rect x="850" y="350" width="50" height="50" fill="#FFFFFF" />
<rect x="900" y="350" width="50" height="50" fill="#FFFFFF" />
<rect x="950" y="350" width="50" height="50" fill="#FFFFFF" />
<rect x="50" y="400" width="50" height="50" fill="#C3C3C3" />
<rect x="100" y="400" width="50" height="50" fill="#C3C3C3" />
<rect x="150" y="400" width="50" height="50" fill="#C3C3C3" />
<rect x="200" y="400" width="50" height="50" fill="#C3C3C3" />
<rect x="250" y="400" width="50" height="50" fill="#C3C3C3" />
<rect x="300" y="400" width="50" height="50" fill="#C3C3C3" />
<rect x="350" y="400" width="50" height="50" fill="#C3C3C3" />
<rect x="400" y="400" width="50" height="50" fill="#C3C3C3" />
<rect x="450" y="400" width="50" height="50" fill="#C3C3C3" />
<rect x="500" y="400" width="50" height="50" fill="#C3C3C3" />
<rect x="550" y="400" width="50" height="50" fill="#C3C3C3" />
<rect x="600" y="400" width="50" height="50" fill="#C3C3C3" />
<rect x="650" y="400" width="50" height="50" fill="#C3C3C3" />
<rect x="700" y="400" width="50" height="50" fill="#C3C3C3" />
<rect x="750" y="400" width="50" height="50" fill="#C3C3C3" />
<rect x="800" y="400" width="50" height="50" fill="#C3C3C3" />
<rect x="850" y="400" width="50" height="50" fill="#C3C3C3" />
<rect x="900" y="400" width="50" height="50" fill="#C3C3C3" />
<rect x="950" y="400" width="50" height="50" fill="#C3C3C3" />
<rect x="50" y="450" width="50" height="50" fill="#C3C3C3" />
<rect x="100" y="450" width="50" height="50" fill="#C3C3C3" />
<rect x="150" y="450" width="50" height="50" fill="#C3C3C3" />
<rect x="200" y="450" width="50" height="50" fill="#C3C3C3" />
<rect x="250" y="450" width="50" height="50" fill="#C3C3C3" />
<rect x="300" y="450" width="50" height="50" fill="#C3C3C3" />
<rect x="350" y="450" width="50" height="50" fill="#C3C3C3" />
<rect x="400" y="450" width="50" height="50" fill="#C3C3C3" />
<rect x="450" y="450" width="50" height="50" fill="#C3C3C3" />
<rect x="500" y="450" width="50" height="50" fill="#C3C3C3" />
<rect x="550" y="450" width="50" height="50" fill="#C3C3C3" />
<rect x="600" y="450" width="50" height="50" fill="#C3C3C3" />
<rect x="650" y="450" width="50" height="50" fill="#C3C3C3" />
<rect x="700" y="450" width="50" height="50" fill="#C3C3C3" />
<rect x="750" y="450" width="50" height="50" fill="#C3C3C3" />
<rect x="800" y="450" width="50" height="50" fill="#C3C3C3" />
<rect x="850" y="450" width="50" height="50" fill="#C3C3C3" />
<rect x="900" y="450" width="50" height="50" fill="#C3C3C3" />
<rect x="950" y="450" width="50" height="50" fill="#C3C3C3" />
</svg>