<?xml version="1.0" encoding="UTF-8" ?>
<svg version="1.1" width="82" height="21" xmlns="http://www.w3.org/2000/svg" shape-rendering="crispEdges">
<rect x="66" y="0" width="1" height="1" fill="#808080" />
<rect x="67" y="0" width="1" height="1" fill="#808080" />
<rect x="68" y="0" width="1" height="1" fill="#808080" />
<rect x="69" y="0" width="1" height="1" fill="#808080" />
<rect x="70" y="0" width="1" height="1" fill="#808080" />
<rect x="71" y="0" width="1" height="1" fill="#808080" />
<rect x="72" y="0" width="1" height="1" fill="#808080" />
<rect x="73" y="0" width="1" height="1" fill="#808080" />
<rect x="74" y="0" width="1" height="1" fill="#808080" />
<rect x="75" y="0" width="1" height="1" fill="#808080" />
<rect x="76" y="0" width="1" height="1" fill="#808080" />
<rect x="77" y="0" width="1" height="1" fill="#808080" />
<rect x="78" y="0" width="1" height="1" fill="#808080" />
<rect x="79" y="0" width="1" height="1" fill="#808080" />
<rect x="80" y="0" width="1" height="1" fill="#808080" />
<rect x="81" y="0" width="1" height="1" fill="#808080" />
<rect x="66" y="1" width="1" height="1" fill="#808080" />
<rect x="67" y="1" width="1" height="1" fill="#808080" />
<rect x="68" y="1" width="1" height="1" fill="#808080" />
<rect x="69" y="1" width="1" height="1" fill="#808080" />
<rect x="70" y="1" width="1" height="1" fill="#808080" />
<rect x="71" y="1" width="1" height="1" fill="#808080" />
<rect x="72" y="1" width="1" height="1" fill="#808080" />
<rect x="73" y="1" width="1" height="1" fill="#808080" />
<rect x="74" y="1" width="1" height="1" fill="#808080" />
<rect x="75" y="1" width="1" height="1" fill="#808080" />
<rect x="76" y="1" width="1" height="1" fill="#808080" />
<rect x="77" y="1" width="1" height="1" fill="#808080" />
<rect x="78" y="1" width="1" height="1" fill="#808080" />
<rect x="79" y="1" width="1" height="1" fill="#808080" />
<rect x="80" y="1" width="1" height="1" fill="#808080" />
<rect x="81" y="1" width="1" height="1" fill="#808080" />
<rect x="66" y="2" width="1" height="1" fill="#808080" />
<rect x="67" y="2" width="1" height="1" fill="#808080" />
<rect x="68" y="2" width="1" height="1" fill="#808080" />
<rect x="69" y="2" width="1" height="1" fill="#808080" />
<rect x="70" y="2" width="1" height="1" fill="#808080" />
<rect x="71" y="2" width="1" height="1" fill="#808080" />
<rect x="72" y="2" width="1" height="1" fill="#808080" />
<rect x="73" y="2" width="1" height="1" fill="#808080" />
<rect x="74" y="2" width="1" height="1" fill="#808080" />
<rect x="75" y="2" width="1" height="1" fill="#808080" />
<rect x="76" y="2" width="1" height="1" fill="#808080" />
<rect x="77" y="2" width="1" height="1" fill="#808080" />
<rect x="78" y="2" width="1" height="1" fill="#808080" />
<rect x="79" y="2" width="1" height="1" fill="#808080" />
<rect x="80" y="2" width="1" height="1" fill="#808080" />
<rect x="81" y="2" width="1" height="1" fill="#808080" />
<rect x="56" y="3" width="1" height="1" fill="#808080" />
<rect x="57" y="3" width="1" height="1" fill="#808080" />
<rect x="58" y="3" width="1" height="1" fill="#808080" />
<rect x="59" y="3" width="1" height="1" fill="#808080" />
<rect x="60" y="3" width="1" height="1" fill="#808080" />
<rect x="61" y="3" width="1" height="1" fill="#808080" />
<rect x="62" y="3" width="1" height="1" fill="#808080" />
<rect x="63" y="3" width="1" height="1" fill="#808080" />
<rect x="64" y="3" width="1" height="1" fill="#808080" />
<rect x="65" y="3" width="1" height="1" fill="#808080" />
<rect x="66" y="3" width="1" height="1" fill="#808080" />
<rect x="67" y="3" width="1" height="1" fill="#808080" />
<rect x="68" y="3" width="1" height="1" fill="#808080" />
<rect x="69" y="3" width="1" height="1" fill="#808080" />
<rect x="70" y="3" width="1" height="1" fill="#808080" />
<rect x="71" y="3" width="1" height="1" fill="#808080" />
<rect x="72" y="3" width="1" height="1" fill="#808080" />
<rect x="73" y="3" width="1" height="1" fill="#808080" />
<rect x="74" y="3" width="1" height="1" fill="#808080" />
<rect x="75" y="3" width="1" height="1" fill="#808080" />
<rect x="76" y="3" width="1" height="1" fill="#808080" />
<rect x="77" y="3" width="1" height="1" fill="#808080" />
<rect x="78" y="3" width="1" height="1" fill="#808080" />
<rect x="79" y="3" width="1" height="1" fill="#808080" />
<rect x="80" y="3" width="1" height="1" fill="#808080" />
<rect x="81" y="3" width="1" height="1" fill="#808080" />
<rect x="56" y="4" width="1" height="1" fill="#808080" />
<rect x="57" y="4" width="1" height="1" fill="#808080" />
<rect x="58" y="4" width="1" height="1" fill="#808080" />
<rect x="59" y="4" width="1" height="1" fill="#808080" />
<rect x="60" y="4" width="1" height="1" fill="#808080" />
<rect x="61" y="4" width="1" height="1" fill="#808080" />
<rect x="62" y="4" width="1" height="1" fill="#808080" />
<rect x="63" y="4" width="1" height="1" fill="#808080" />
<rect x="64" y="4" width="1" height="1" fill="#808080" />
<rect x="65" y="4" width="1" height="1" fill="#808080" />
<rect x="66" y="4" width="1" height="1" fill="#808080" />
<rect x="67" y="4" width="1" height="1" fill="#808080" />
<rect x="68" y="4" width="1" height="1" fill="#808080" />
<rect x="69" y="4" width="1" height="1" fill="#808080" />
<rect x="70" y="4" width="1" height="1" fill="#808080" />
<rect x="71" y="4" width="1" height="1" fill="#808080" />
<rect x="72" y="4" width="1" height="1" fill="#808080" />
<rect x="73" y="4" width="1" height="1" fill="#808080" />
<rect x="74" y="4" width="1" height="1" fill="#808080" />
<rect x="75" y="4" width="1" height="1" fill="#5C5C5C" />
<rect x="76" y="4" width="1" height="1" fill="#5C5C5C" />
<rect x="77" y="4" width="1" height="1" fill="#5C5C5C" />
<rect x="78" y="4" width="1" height="1" fill="#5C5C5C" />
<rect x="79" y="4" width="1" height="1" fill="#5C5C5C" />
<rect x="80" y="4" width="1" height="1" fill="#5C5C5C" />
<rect x="81" y="4" width="1" height="1" fill="#5C5C5C" />
<rect x="56" y="5" width="1" height="1" fill="#808080" />
<rect x="57" y="5" width="1" height="1" fill="#808080" />
<rect x="58" y="5" width="1" height="1" fill="#808080" />
<rect x="59" y="5" width="1" height="1" fill="#808080" />
<rect x="60" y="5" width="1" height="1" fill="#808080" />
<rect x="61" y="5" width="1" height="1" fill="#808080" />
<rect x="62" y="5" width="1" height="1" fill="#808080" />
<rect x="63" y="5" width="1" height="1" fill="#808080" />
<rect x="64" y="5" width="1" height="1" fill="#808080" />
<rect x="65" y="5" width="1" height="1" fill="#808080" />
<rect x="66" y="5" width="1" height="1" fill="#808080" />
<rect x="67" y="5" width="1" height="1" fill="#808080" />
<rect x="68" y="5" width="1" height="1" fill="#808080" />
<rect x="69" y="5" width="1" height="1" fill="#808080" />
<rect x="70" y="5" width="1" height="1" fill="#808080" />
<rect x="71" y="5" width="1" height="1" fill="#808080" />
<rect x="72" y="5" width="1" height="1" fill="#808080" />
<rect x="73" y="5" width="1" height="1" fill="#808080" />
<rect x="74" y="5" width="1" height="1" fill="#808080" />
<rect x="75" y="5" width="1" height="1" fill="#5C5C5C" />
<rect x="76" y="5" width="1" height="1" fill="#5C5C5C" />
<rect x="77" y="5" width="1" height="1" fill="#5C5C5C" />
<rect x="78" y="5" width="1" height="1" fill="#5C5C5C" />
<rect x="79" y="5" width="1" height="1" fill="#5C5C5C" />
<rect x="80" y="5" width="1" height="1" fill="#5C5C5C" />
<rect x="81" y="5" width="1" height="1" fill="#5C5C5C" />
<rect x="56" y="6" width="1" height="1" fill="#808080" />
<rect x="57" y="6" width="1" height="1" fill="#808080" />
<rect x="58" y="6" width="1" height="1" fill="#808080" />
<rect x="59" y="6" width="1" height="1" fill="#808080" />
<rect x="60" y="6" width="1" height="1" fill="#808080" />
<rect x="61" y="6" width="1" height="1" fill="#808080" />
<rect x="62" y="6" width="1" height="1" fill="#808080" />
<rect x="63" y="6" width="1" height="1" fill="#808080" />
<rect x="64" y="6" width="1" height="1" fill="#808080" />
<rect x="65" y="6" width="1" height="1" fill="#808080" />
<rect x="66" y="6" width="1" height="1" fill="#808080" />
<rect x="67" y="6" width="1" height="1" fill="#808080" />
<rect x="68" y="6" width="1" height="1" fill="#808080" />
<rect x="69" y="6" width="1" height="1" fill="#808080" />
<rect x="70" y="6" width="1" height="1" fill="#808080" />
<rect x="71" y="6" width="1" height="1" fill="#808080" />
<rect x="72" y="6" width="1" height="1" fill="#808080" />
<rect x="73" y="6" width="1" height="1" fill="#808080" />
<rect x="74" y="6" width="1" height="1" fill="#808080" />
<rect x="56" y="7" width="1" height="1" fill="#5C5C5C" />
<rect x="57" y="7" width="1" height="1" fill="#5C5C5C" />
<rect x="58" y="7" width="1" height="1" fill="#5C5C5C" />
<rect x="59" y="7" width="1" height="1" fill="#5C5C5C" />
<rect x="60" y="7" width="1" height="1" fill="#5C5C5C" />
<rect x="61" y="7" width="1" height="1" fill="#5C5C5C" />
<rect x="62" y="7" width="1" height="1" fill="#5C5C5C" />
<rect x="63" y="7" width="1" height="1" fill="#5C5C5C" />
<rect x="64" y="7" width="1" height="1" fill="#5C5C5C" />
<rect x="65" y="7" width="1" height="1" fill="#5C5C5C" />
<rect x="66" y="7" width="1" height="1" fill="#5C5C5C" />
<rect x="67" y="7" width="1" height="1" fill="#5C5C5C" />
<rect x="68" y="7" width="1" height="1" fill="#5C5C5C" />
<rect x="69" y="7" width="1" height="1" fill="#5C5C5C" />
<rect x="70" y="7" width="1" height="1" fill="#5C5C5C" />
<rect x="71" y="7" width="1" height="1" fill="#5C5C5C" />
<rect x="72" y="7" width="1" height="1" fill="#5C5C5C" />
<rect x="73" y="7" width="1" height="1" fill="#5C5C5C" />
<rect x="74" y="7" width="1" height="1" fill="#5C5C5C" />
<rect x="56" y="8" width="1" height="1" fill="#5C5C5C" />
<rect x="57" y="8" width="1" height="1" fill="#5C5C5C" />
<rect x="58" y="8" width="1" height="1" fill="#5C5C5C" />
<rect x="59" y="8" width="1" height="1" fill="#5C5C5C" />
<rect x="60" y="8" width="1" height="1" fill="#5C5C5C" />
<rect x="61" y="8" width="1" height="1" fill="#5C5C5C" />
<rect x="62" y="8" width="1" height="1" fill="#5C5C5C" />
<rect x="63" y="8" width="1" height="1" fill="#5C5C5C" />
<rect x="64" y="8" width="1" height="1" fill="#5C5C5C" />
<rect x="65" y="8" width="1" height="1" fill="#5C5C5C" />
<rect x="66" y="8" width="1" height="1" fill="#5C5C5C" />
<rect x="67" y="8" width="1" height="1" fill="#5C5C5C" />
<rect x="68" y="8" width="1" height="1" fill="#5C5C5C" />
<rect x="69" y="8" width="1" height="1" fill="#5C5C5C" />
<rect x="70" y="8" width="1" height="1" fill="#5C5C5C" />
<rect x="71" y="8" width="1" height="1" fill="#5C5C5C" />
<rect x="72" y="8" width="1" height="1" fill="#5C5C5C" />
<rect x="73" y="8" width="1" height="1" fill="#5C5C5C" />
<rect x="74" y="8" width="1" height="1" fill="#5C5C5C" />
<rect x="24" y="9" width="1" height="1" fill="#808080" />
<rect x="25" y="9" width="1" height="1" fill="#808080" />
<rect x="26" y="9" width="1" height="1" fill="#808080" />
<rect x="27" y="9" width="1" height="1" fill="#808080" />
<rect x="28" y="9" width="1" height="1" fill="#808080" />
<rect x="29" y="9" width="1" height="1" fill="#808080" />
<rect x="30" y="9" width="1" height="1" fill="#808080" />
<rect x="31" y="9" width="1" height="1" fill="#808080" />
<rect x="32" y="9" width="1" height="1" fill="#808080" />
<rect x="33" y="9" width="1" height="1" fill="#808080" />
<rect x="34" y="9" width="1" height="1" fill="#808080" />
<rect x="35" y="9" width="1" height="1" fill="#808080" />
<rect x="36" y="9" width="1" height="1" fill="#808080" />
<rect x="37" y="9" width="1" height="1" fill="#808080" />
<rect x="38" y="9" width="1" height="1" fill="#808080" />
<rect x="39" y="9" width="1" height="1" fill="#808080" />
<rect x="40" y="9" width="1" height="1" fill="#808080" />
<rect x="41" y="9" width="1" height="1" fill="#808080" />
<rect x="42" y="9" width="1" height="1" fill="#808080" />
<rect x="43" y="9" width="1" height="1" fill="#808080" />
<rect x="44" y="9" width="1" height="1" fill="#808080" />
<rect x="45" y="9" width="1" height="1" fill="#808080" />
<rect x="46" y="9" width="1" height="1" fill="#808080" />
<rect x="47" y="9" width="1" height="1" fill="#808080" />
<rect x="48" y="9" width="1" height="1" fill="#808080" />
<rect x="49" y="9" width="1" height="1" fill="#808080" />
<rect x="50" y="9" width="1" height="1" fill="#808080" />
<rect x="51" y="9" width="1" height="1" fill="#808080" />
<rect x="52" y="9" width="1" height="1" fill="#808080" />
<rect x="53" y="9" width="1" height="1" fill="#808080" />
<rect x="54" y="9" width="1" height="1" fill="#808080" />
<rect x="55" y="9" width="1" height="1" fill="#808080" />
<rect x="56" y="9" width="1" height="1" fill="#808080" />
<rect x="57" y="9" width="1" height="1" fill="#808080" />
<rect x="58" y="9" width="1" height="1" fill="#808080" />
<rect x="59" y="9" width="1" height="1" fill="#808080" />
<rect x="60" y="9" width="1" height="1" fill="#808080" />
<rect x="61" y="9" width="1" height="1" fill="#808080" />
<rect x="62" y="9" width="1" height="1" fill="#808080" />
<rect x="4" y="10" width="1" height="1" fill="#808080" />
<rect x="5" y="10" width="1" height="1" fill="#808080" />
<rect x="6" y="10" width="1" height="1" fill="#808080" />
<rect x="7" y="10" width="1" height="1" fill="#808080" />
<rect x="8" y="10" width="1" height="1" fill="#808080" />
<rect x="9" y="10" width="1" height="1" fill="#808080" />
<rect x="10" y="10" width="1" height="1" fill="#808080" />
<rect x="11" y="10" width="1" height="1" fill="#808080" />
<rect x="12" y="10" width="1" height="1" fill="#808080" />
<rect x="13" y="10" width="1" height="1" fill="#808080" />
<rect x="14" y="10" width="1" height="1" fill="#808080" />
<rect x="15" y="10" width="1" height="1" fill="#808080" />
<rect x="16" y="10" width="1" height="1" fill="#808080" />
<rect x="17" y="10" width="1" height="1" fill="#808080" />
<rect x="18" y="10" width="1" height="1" fill="#808080" />
<rect x="19" y="10" width="1" height="1" fill="#808080" />
<rect x="20" y="10" width="1" height="1" fill="#808080" />
<rect x="21" y="10" width="1" height="1" fill="#808080" />
<rect x="22" y="10" width="1" height="1" fill="#808080" />
<rect x="23" y="10" width="1" height="1" fill="#808080" />
<rect x="24" y="10" width="1" height="1" fill="#808080" />
<rect x="25" y="10" width="1" height="1" fill="#808080" />
<rect x="26" y="10" width="1" height="1" fill="#808080" />
<rect x="27" y="10" width="1" height="1" fill="#808080" />
<rect x="28" y="10" width="1" height="1" fill="#808080" />
<rect x="29" y="10" width="1" height="1" fill="#808080" />
<rect x="30" y="10" width="1" height="1" fill="#808080" />
<rect x="31" y="10" width="1" height="1" fill="#808080" />
<rect x="32" y="10" width="1" height="1" fill="#808080" />
<rect x="33" y="10" width="1" height="1" fill="#808080" />
<rect x="34" y="10" width="1" height="1" fill="#808080" />
<rect x="35" y="10" width="1" height="1" fill="#808080" />
<rect x="36" y="10" width="1" height="1" fill="#808080" />
<rect x="37" y="10" width="1" height="1" fill="#808080" />
<rect x="38" y="10" width="1" height="1" fill="#808080" />
<rect x="39" y="10" width="1" height="1" fill="#808080" />
<rect x="40" y="10" width="1" height="1" fill="#808080" />
<rect x="41" y="10" width="1" height="1" fill="#808080" />
<rect x="42" y="10" width="1" height="1" fill="#808080" />
<rect x="43" y="10" width="1" height="1" fill="#808080" />
<rect x="44" y="10" width="1" height="1" fill="#808080" />
<rect x="45" y="10" width="1" height="1" fill="#808080" />
<rect x="46" y="10" width="1" height="1" fill="#808080" />
<rect x="47" y="10" width="1" height="1" fill="#808080" />
<rect x="48" y="10" width="1" height="1" fill="#808080" />
<rect x="49" y="10" width="1" height="1" fill="#808080" />
<rect x="50" y="10" width="1" height="1" fill="#808080" />
<rect x="51" y="10" width="1" height="1" fill="#808080" />
<rect x="52" y="10" width="1" height="1" fill="#808080" />
<rect x="53" y="10" width="1" height="1" fill="#808080" />
<rect x="54" y="10" width="1" height="1" fill="#808080" />
<rect x="55" y="10" width="1" height="1" fill="#808080" />
<rect x="56" y="10" width="1" height="1" fill="#808080" />
<rect x="57" y="10" width="1" height="1" fill="#808080" />
<rect x="58" y="10" width="1" height="1" fill="#808080" />
<rect x="59" y="10" width="1" height="1" fill="#808080" />
<rect x="60" y="10" width="1" height="1" fill="#808080" />
<rect x="61" y="10" width="1" height="1" fill="#808080" />
<rect x="62" y="10" width="1" height="1" fill="#808080" />
<rect x="4" y="11" width="1" height="1" fill="#808080" />
<rect x="5" y="11" width="1" height="1" fill="#808080" />
<rect x="6" y="11" width="1" height="1" fill="#808080" />
<rect x="7" y="11" width="1" height="1" fill="#808080" />
<rect x="8" y="11" width="1" height="1" fill="#808080" />
<rect x="9" y="11" width="1" height="1" fill="#808080" />
<rect x="10" y="11" width="1" height="1" fill="#808080" />
<rect x="11" y="11" width="1" height="1" fill="#808080" />
<rect x="12" y="11" width="1" height="1" fill="#808080" />
<rect x="13" y="11" width="1" height="1" fill="#808080" />
<rect x="14" y="11" width="1" height="1" fill="#808080" />
<rect x="15" y="11" width="1" height="1" fill="#808080" />
<rect x="16" y="11" width="1" height="1" fill="#808080" />
<rect x="17" y="11" width="1" height="1" fill="#808080" />
<rect x="18" y="11" width="1" height="1" fill="#808080" />
<rect x="19" y="11" width="1" height="1" fill="#808080" />
<rect x="20" y="11" width="1" height="1" fill="#808080" />
<rect x="21" y="11" width="1" height="1" fill="#808080" />
<rect x="22" y="11" width="1" height="1" fill="#808080" />
<rect x="23" y="11" width="1" height="1" fill="#808080" />
<rect x="24" y="11" width="1" height="1" fill="#808080" />
<rect x="25" y="11" width="1" height="1" fill="#808080" />
<rect x="26" y="11" width="1" height="1" fill="#808080" />
<rect x="27" y="11" width="1" height="1" fill="#808080" />
<rect x="28" y="11" width="1" height="1" fill="#808080" />
<rect x="29" y="11" width="1" height="1" fill="#808080" />
<rect x="30" y="11" width="1" height="1" fill="#808080" />
<rect x="31" y="11" width="1" height="1" fill="#808080" />
<rect x="32" y="11" width="1" height="1" fill="#808080" />
<rect x="33" y="11" width="1" height="1" fill="#808080" />
<rect x="34" y="11" width="1" height="1" fill="#808080" />
<rect x="35" y="11" width="1" height="1" fill="#808080" />
<rect x="36" y="11" width="1" height="1" fill="#808080" />
<rect x="37" y="11" width="1" height="1" fill="#808080" />
<rect x="38" y="11" width="1" height="1" fill="#808080" />
<rect x="39" y="11" width="1" height="1" fill="#808080" />
<rect x="40" y="11" width="1" height="1" fill="#808080" />
<rect x="41" y="11" width="1" height="1" fill="#808080" />
<rect x="42" y="11" width="1" height="1" fill="#808080" />
<rect x="43" y="11" width="1" height="1" fill="#808080" />
<rect x="44" y="11" width="1" height="1" fill="#808080" />
<rect x="45" y="11" width="1" height="1" fill="#808080" />
<rect x="46" y="11" width="1" height="1" fill="#808080" />
<rect x="47" y="11" width="1" height="1" fill="#808080" />
<rect x="48" y="11" width="1" height="1" fill="#808080" />
<rect x="49" y="11" width="1" height="1" fill="#808080" />
<rect x="50" y="11" width="1" height="1" fill="#808080" />
<rect x="51" y="11" width="1" height="1" fill="#808080" />
<rect x="52" y="11" width="1" height="1" fill="#808080" />
<rect x="53" y="11" width="1" height="1" fill="#808080" />
<rect x="54" y="11" width="1" height="1" fill="#808080" />
<rect x="55" y="11" width="1" height="1" fill="#808080" />
<rect x="56" y="11" width="1" height="1" fill="#808080" />
<rect x="57" y="11" width="1" height="1" fill="#808080" />
<rect x="58" y="11" width="1" height="1" fill="#808080" />
<rect x="59" y="11" width="1" height="1" fill="#808080" />
<rect x="60" y="11" width="1" height="1" fill="#808080" />
<rect x="61" y="11" width="1" height="1" fill="#808080" />
<rect x="62" y="11" width="1" height="1" fill="#808080" />
<rect x="4" y="12" width="1" height="1" fill="#808080" />
<rect x="5" y="12" width="1" height="1" fill="#808080" />
<rect x="6" y="12" width="1" height="1" fill="#808080" />
<rect x="7" y="12" width="1" height="1" fill="#808080" />
<rect x="8" y="12" width="1" height="1" fill="#808080" />
<rect x="9" y="12" width="1" height="1" fill="#808080" />
<rect x="10" y="12" width="1" height="1" fill="#808080" />
<rect x="11" y="12" width="1" height="1" fill="#808080" />
<rect x="12" y="12" width="1" height="1" fill="#808080" />
<rect x="13" y="12" width="1" height="1" fill="#808080" />
<rect x="14" y="12" width="1" height="1" fill="#808080" />
<rect x="15" y="12" width="1" height="1" fill="#808080" />
<rect x="16" y="12" width="1" height="1" fill="#808080" />
<rect x="17" y="12" width="1" height="1" fill="#808080" />
<rect x="18" y="12" width="1" height="1" fill="#808080" />
<rect x="19" y="12" width="1" height="1" fill="#808080" />
<rect x="20" y="12" width="1" height="1" fill="#808080" />
<rect x="21" y="12" width="1" height="1" fill="#808080" />
<rect x="22" y="12" width="1" height="1" fill="#808080" />
<rect x="23" y="12" width="1" height="1" fill="#808080" />
<rect x="24" y="12" width="1" height="1" fill="#808080" />
<rect x="25" y="12" width="1" height="1" fill="#808080" />
<rect x="26" y="12" width="1" height="1" fill="#808080" />
<rect x="27" y="12" width="1" height="1" fill="#808080" />
<rect x="28" y="12" width="1" height="1" fill="#808080" />
<rect x="29" y="12" width="1" height="1" fill="#808080" />
<rect x="30" y="12" width="1" height="1" fill="#808080" />
<rect x="31" y="12" width="1" height="1" fill="#808080" />
<rect x="32" y="12" width="1" height="1" fill="#808080" />
<rect x="33" y="12" width="1" height="1" fill="#808080" />
<rect x="34" y="12" width="1" height="1" fill="#808080" />
<rect x="35" y="12" width="1" height="1" fill="#808080" />
<rect x="36" y="12" width="1" height="1" fill="#808080" />
<rect x="37" y="12" width="1" height="1" fill="#808080" />
<rect x="38" y="12" width="1" height="1" fill="#808080" />
<rect x="39" y="12" width="1" height="1" fill="#808080" />
<rect x="40" y="12" width="1" height="1" fill="#808080" />
<rect x="41" y="12" width="1" height="1" fill="#808080" />
<rect x="42" y="12" width="1" height="1" fill="#808080" />
<rect x="43" y="12" width="1" height="1" fill="#808080" />
<rect x="44" y="12" width="1" height="1" fill="#808080" />
<rect x="45" y="12" width="1" height="1" fill="#808080" />
<rect x="46" y="12" width="1" height="1" fill="#808080" />
<rect x="47" y="12" width="1" height="1" fill="#808080" />
<rect x="48" y="12" width="1" height="1" fill="#808080" />
<rect x="49" y="12" width="1" height="1" fill="#808080" />
<rect x="50" y="12" width="1" height="1" fill="#808080" />
<rect x="51" y="12" width="1" height="1" fill="#808080" />
<rect x="52" y="12" width="1" height="1" fill="#808080" />
<rect x="53" y="12" width="1" height="1" fill="#808080" />
<rect x="54" y="12" width="1" height="1" fill="#808080" />
<rect x="55" y="12" width="1" height="1" fill="#808080" />
<rect x="56" y="12" width="1" height="1" fill="#808080" />
<rect x="57" y="12" width="1" height="1" fill="#808080" />
<rect x="58" y="12" width="1" height="1" fill="#808080" />
<rect x="59" y="12" width="1" height="1" fill="#808080" />
<rect x="60" y="12" width="1" height="1" fill="#808080" />
<rect x="61" y="12" width="1" height="1" fill="#808080" />
<rect x="62" y="12" width="1" height="1" fill="#808080" />
<rect x="4" y="13" width="1" height="1" fill="#808080" />
<rect x="5" y="13" width="1" height="1" fill="#808080" />
<rect x="6" y="13" width="1" height="1" fill="#808080" />
<rect x="7" y="13" width="1" height="1" fill="#808080" />
<rect x="8" y="13" width="1" height="1" fill="#808080" />
<rect x="9" y="13" width="1" height="1" fill="#808080" />
<rect x="10" y="13" width="1" height="1" fill="#808080" />
<rect x="11" y="13" width="1" height="1" fill="#808080" />
<rect x="12" y="13" width="1" height="1" fill="#808080" />
<rect x="13" y="13" width="1" height="1" fill="#808080" />
<rect x="14" y="13" width="1" height="1" fill="#808080" />
<rect x="15" y="13" width="1" height="1" fill="#808080" />
<rect x="16" y="13" width="1" height="1" fill="#808080" />
<rect x="17" y="13" width="1" height="1" fill="#808080" />
<rect x="18" y="13" width="1" height="1" fill="#808080" />
<rect x="19" y="13" width="1" height="1" fill="#808080" />
<rect x="20" y="13" width="1" height="1" fill="#808080" />
<rect x="21" y="13" width="1" height="1" fill="#808080" />
<rect x="22" y="13" width="1" height="1" fill="#808080" />
<rect x="23" y="13" width="1" height="1" fill="#808080" />
<rect x="24" y="13" width="1" height="1" fill="#808080" />
<rect x="25" y="13" width="1" height="1" fill="#808080" />
<rect x="26" y="13" width="1" height="1" fill="#808080" />
<rect x="27" y="13" width="1" height="1" fill="#808080" />
<rect x="28" y="13" width="1" height="1" fill="#808080" />
<rect x="29" y="13" width="1" height="1" fill="#808080" />
<rect x="30" y="13" width="1" height="1" fill="#808080" />
<rect x="31" y="13" width="1" height="1" fill="#808080" />
<rect x="32" y="13" width="1" height="1" fill="#808080" />
<rect x="33" y="13" width="1" height="1" fill="#808080" />
<rect x="34" y="13" width="1" height="1" fill="#808080" />
<rect x="35" y="13" width="1" height="1" fill="#808080" />
<rect x="36" y="13" width="1" height="1" fill="#808080" />
<rect x="37" y="13" width="1" height="1" fill="#808080" />
<rect x="38" y="13" width="1" height="1" fill="#808080" />
<rect x="39" y="13" width="1" height="1" fill="#808080" />
<rect x="40" y="13" width="1" height="1" fill="#808080" />
<rect x="41" y="13" width="1" height="1" fill="#808080" />
<rect x="42" y="13" width="1" height="1" fill="#808080" />
<rect x="43" y="13" width="1" height="1" fill="#808080" />
<rect x="44" y="13" width="1" height="1" fill="#808080" />
<rect x="45" y="13" width="1" height="1" fill="#808080" />
<rect x="46" y="13" width="1" height="1" fill="#808080" />
<rect x="47" y="13" width="1" height="1" fill="#808080" />
<rect x="48" y="13" width="1" height="1" fill="#808080" />
<rect x="49" y="13" width="1" height="1" fill="#808080" />
<rect x="50" y="13" width="1" height="1" fill="#808080" />
<rect x="51" y="13" width="1" height="1" fill="#808080" />
<rect x="52" y="13" width="1" height="1" fill="#5C5C5C" />
<rect x="53" y="13" width="1" height="1" fill="#5C5C5C" />
<rect x="54" y="13" width="1" height="1" fill="#5C5C5C" />
<rect x="55" y="13" width="1" height="1" fill="#5C5C5C" />
<rect x="56" y="13" width="1" height="1" fill="#5C5C5C" />
<rect x="57" y="13" width="1" height="1" fill="#5C5C5C" />
<rect x="58" y="13" width="1" height="1" fill="#5C5C5C" />
<rect x="59" y="13" width="1" height="1" fill="#5C5C5C" />
<rect x="60" y="13" width="1" height="1" fill="#5C5C5C" />
<rect x="61" y="13" width="1" height="1" fill="#5C5C5C" />
<rect x="62" y="13" width="1" height="1" fill="#5C5C5C" />
<rect x="0" y="14" width="1" height="1" fill="#808080" />
<rect x="1" y="14" width="1" height="1" fill="#808080" />
<rect x="2" y="14" width="1" height="1" fill="#808080" />
<rect x="3" y="14" width="1" height="1" fill="#808080" />
<rect x="4" y="14" width="1" height="1" fill="#808080" />
<rect x="5" y="14" width="1" height="1" fill="#808080" />
<rect x="6" y="14" width="1" height="1" fill="#808080" />
<rect x="7" y="14" width="1" height="1" fill="#808080" />
<rect x="8" y="14" width="1" height="1" fill="#808080" />
<rect x="9" y="14" width="1" height="1" fill="#808080" />
<rect x="10" y="14" width="1" height="1" fill="#808080" />
<rect x="11" y="14" width="1" height="1" fill="#808080" />
<rect x="12" y="14" width="1" height="1" fill="#808080" />
<rect x="13" y="14" width="1" height="1" fill="#808080" />
<rect x="14" y="14" width="1" height="1" fill="#808080" />
<rect x="15" y="14" width="1" height="1" fill="#808080" />
<rect x="16" y="14" width="1" height="1" fill="#808080" />
<rect x="17" y="14" width="1" height="1" fill="#808080" />
<rect x="18" y="14" width="1" height="1" fill="#808080" />
<rect x="19" y="14" width="1" height="1" fill="#808080" />
<rect x="20" y="14" width="1" height="1" fill="#808080" />
<rect x="21" y="14" width="1" height="1" fill="#808080" />
<rect x="22" y="14" width="1" height="1" fill="#808080" />
<rect x="23" y="14" width="1" height="1" fill="#808080" />
<rect x="24" y="14" width="1" height="1" fill="#808080" />
<rect x="25" y="14" width="1" height="1" fill="#808080" />
<rect x="26" y="14" width="1" height="1" fill="#808080" />
<rect x="27" y="14" width="1" height="1" fill="#808080" />
<rect x="28" y="14" width="1" height="1" fill="#808080" />
<rect x="29" y="14" width="1" height="1" fill="#808080" />
<rect x="30" y="14" width="1" height="1" fill="#808080" />
<rect x="31" y="14" width="1" height="1" fill="#808080" />
<rect x="32" y="14" width="1" height="1" fill="#808080" />
<rect x="33" y="14" width="1" height="1" fill="#808080" />
<rect x="34" y="14" width="1" height="1" fill="#808080" />
<rect x="35" y="14" width="1" height="1" fill="#808080" />
<rect x="36" y="14" width="1" height="1" fill="#808080" />
<rect x="37" y="14" width="1" height="1" fill="#808080" />
<rect x="38" y="14" width="1" height="1" fill="#808080" />
<rect x="39" y="14" width="1" height="1" fill="#808080" />
<rect x="40" y="14" width="1" height="1" fill="#808080" />
<rect x="41" y="14" width="1" height="1" fill="#808080" />
<rect x="42" y="14" width="1" height="1" fill="#808080" />
<rect x="43" y="14" width="1" height="1" fill="#808080" />
<rect x="44" y="14" width="1" height="1" fill="#808080" />
<rect x="45" y="14" width="1" height="1" fill="#808080" />
<rect x="46" y="14" width="1" height="1" fill="#808080" />
<rect x="47" y="14" width="1" height="1" fill="#808080" />
<rect x="48" y="14" width="1" height="1" fill="#808080" />
<rect x="49" y="14" width="1" height="1" fill="#808080" />
<rect x="50" y="14" width="1" height="1" fill="#808080" />
<rect x="51" y="14" width="1" height="1" fill="#808080" />
<rect x="52" y="14" width="1" height="1" fill="#5C5C5C" />
<rect x="53" y="14" width="1" height="1" fill="#5C5C5C" />
<rect x="54" y="14" width="1" height="1" fill="#5C5C5C" />
<rect x="55" y="14" width="1" height="1" fill="#5C5C5C" />
<rect x="56" y="14" width="1" height="1" fill="#5C5C5C" />
<rect x="57" y="14" width="1" height="1" fill="#5C5C5C" />
<rect x="58" y="14" width="1" height="1" fill="#5C5C5C" />
<rect x="59" y="14" width="1" height="1" fill="#5C5C5C" />
<rect x="60" y="14" width="1" height="1" fill="#5C5C5C" />
<rect x="61" y="14" width="1" height="1" fill="#5C5C5C" />
<rect x="62" y="14" width="1" height="1" fill="#5C5C5C" />
<rect x="0" y="15" width="1" height="1" fill="#808080" />
<rect x="1" y="15" width="1" height="1" fill="#808080" />
<rect x="2" y="15" width="1" height="1" fill="#808080" />
<rect x="3" y="15" width="1" height="1" fill="#808080" />
<rect x="4" y="15" width="1" height="1" fill="#808080" />
<rect x="5" y="15" width="1" height="1" fill="#808080" />
<rect x="6" y="15" width="1" height="1" fill="#808080" />
<rect x="7" y="15" width="1" height="1" fill="#808080" />
<rect x="8" y="15" width="1" height="1" fill="#808080" />
<rect x="9" y="15" width="1" height="1" fill="#808080" />
<rect x="10" y="15" width="1" height="1" fill="#808080" />
<rect x="11" y="15" width="1" height="1" fill="#808080" />
<rect x="12" y="15" width="1" height="1" fill="#808080" />
<rect x="13" y="15" width="1" height="1" fill="#808080" />
<rect x="14" y="15" width="1" height="1" fill="#808080" />
<rect x="15" y="15" width="1" height="1" fill="#808080" />
<rect x="16" y="15" width="1" height="1" fill="#808080" />
<rect x="17" y="15" width="1" height="1" fill="#808080" />
<rect x="18" y="15" width="1" height="1" fill="#808080" />
<rect x="19" y="15" width="1" height="1" fill="#808080" />
<rect x="20" y="15" width="1" height="1" fill="#808080" />
<rect x="21" y="15" width="1" height="1" fill="#808080" />
<rect x="22" y="15" width="1" height="1" fill="#808080" />
<rect x="23" y="15" width="1" height="1" fill="#808080" />
<rect x="24" y="15" width="1" height="1" fill="#808080" />
<rect x="25" y="15" width="1" height="1" fill="#808080" />
<rect x="26" y="15" width="1" height="1" fill="#808080" />
<rect x="27" y="15" width="1" height="1" fill="#808080" />
<rect x="28" y="15" width="1" height="1" fill="#808080" />
<rect x="29" y="15" width="1" height="1" fill="#808080" />
<rect x="30" y="15" width="1" height="1" fill="#808080" />
<rect x="31" y="15" width="1" height="1" fill="#808080" />
<rect x="32" y="15" width="1" height="1" fill="#808080" />
<rect x="33" y="15" width="1" height="1" fill="#808080" />
<rect x="34" y="15" width="1" height="1" fill="#808080" />
<rect x="35" y="15" width="1" height="1" fill="#808080" />
<rect x="36" y="15" width="1" height="1" fill="#808080" />
<rect x="37" y="15" width="1" height="1" fill="#808080" />
<rect x="38" y="15" width="1" height="1" fill="#808080" />
<rect x="39" y="15" width="1" height="1" fill="#808080" />
<rect x="40" y="15" width="1" height="1" fill="#808080" />
<rect x="41" y="15" width="1" height="1" fill="#808080" />
<rect x="42" y="15" width="1" height="1" fill="#808080" />
<rect x="43" y="15" width="1" height="1" fill="#808080" />
<rect x="44" y="15" width="1" height="1" fill="#808080" />
<rect x="45" y="15" width="1" height="1" fill="#808080" />
<rect x="46" y="15" width="1" height="1" fill="#808080" />
<rect x="47" y="15" width="1" height="1" fill="#808080" />
<rect x="48" y="15" width="1" height="1" fill="#808080" />
<rect x="49" y="15" width="1" height="1" fill="#808080" />
<rect x="50" y="15" width="1" height="1" fill="#808080" />
<rect x="51" y="15" width="1" height="1" fill="#808080" />
<rect x="52" y="15" width="1" height="1" fill="#808080" />
<rect x="53" y="15" width="1" height="1" fill="#808080" />
<rect x="54" y="15" width="1" height="1" fill="#808080" />
<rect x="55" y="15" width="1" height="1" fill="#808080" />
<rect x="56" y="15" width="1" height="1" fill="#808080" />
<rect x="57" y="15" width="1" height="1" fill="#808080" />
<rect x="58" y="15" width="1" height="1" fill="#808080" />
<rect x="59" y="15" width="1" height="1" fill="#808080" />
<rect x="60" y="15" width="1" height="1" fill="#808080" />
<rect x="61" y="15" width="1" height="1" fill="#808080" />
<rect x="62" y="15" width="1" height="1" fill="#808080" />
<rect x="0" y="16" width="1" height="1" fill="#808080" />
<rect x="1" y="16" width="1" height="1" fill="#808080" />
<rect x="2" y="16" width="1" height="1" fill="#808080" />
<rect x="3" y="16" width="1" height="1" fill="#808080" />
<rect x="4" y="16" width="1" height="1" fill="#808080" />
<rect x="5" y="16" width="1" height="1" fill="#808080" />
<rect x="6" y="16" width="1" height="1" fill="#808080" />
<rect x="7" y="16" width="1" height="1" fill="#808080" />
<rect x="8" y="16" width="1" height="1" fill="#808080" />
<rect x="9" y="16" width="1" height="1" fill="#808080" />
<rect x="10" y="16" width="1" height="1" fill="#808080" />
<rect x="11" y="16" width="1" height="1" fill="#808080" />
<rect x="12" y="16" width="1" height="1" fill="#808080" />
<rect x="13" y="16" width="1" height="1" fill="#808080" />
<rect x="14" y="16" width="1" height="1" fill="#808080" />
<rect x="15" y="16" width="1" height="1" fill="#808080" />
<rect x="16" y="16" width="1" height="1" fill="#808080" />
<rect x="17" y="16" width="1" height="1" fill="#808080" />
<rect x="18" y="16" width="1" height="1" fill="#808080" />
<rect x="19" y="16" width="1" height="1" fill="#808080" />
<rect x="20" y="16" width="1" height="1" fill="#808080" />
<rect x="21" y="16" width="1" height="1" fill="#808080" />
<rect x="22" y="16" width="1" height="1" fill="#808080" />
<rect x="23" y="16" width="1" height="1" fill="#808080" />
<rect x="24" y="16" width="1" height="1" fill="#808080" />
<rect x="25" y="16" width="1" height="1" fill="#808080" />
<rect x="26" y="16" width="1" height="1" fill="#808080" />
<rect x="27" y="16" width="1" height="1" fill="#808080" />
<rect x="28" y="16" width="1" height="1" fill="#808080" />
<rect x="29" y="16" width="1" height="1" fill="#808080" />
<rect x="30" y="16" width="1" height="1" fill="#808080" />
<rect x="31" y="16" width="1" height="1" fill="#5C5C5C" />
<rect x="32" y="16" width="1" height="1" fill="#5C5C5C" />
<rect x="33" y="16" width="1" height="1" fill="#5C5C5C" />
<rect x="34" y="16" width="1" height="1" fill="#5C5C5C" />
<rect x="35" y="16" width="1" height="1" fill="#5C5C5C" />
<rect x="36" y="16" width="1" height="1" fill="#5C5C5C" />
<rect x="37" y="16" width="1" height="1" fill="#5C5C5C" />
<rect x="38" y="16" width="1" height="1" fill="#5C5C5C" />
<rect x="39" y="16" width="1" height="1" fill="#808080" />
<rect x="40" y="16" width="1" height="1" fill="#808080" />
<rect x="41" y="16" width="1" height="1" fill="#808080" />
<rect x="42" y="16" width="1" height="1" fill="#808080" />
<rect x="43" y="16" width="1" height="1" fill="#808080" />
<rect x="44" y="16" width="1" height="1" fill="#808080" />
<rect x="45" y="16" width="1" height="1" fill="#808080" />
<rect x="46" y="16" width="1" height="1" fill="#808080" />
<rect x="47" y="16" width="1" height="1" fill="#808080" />
<rect x="48" y="16" width="1" height="1" fill="#808080" />
<rect x="49" y="16" width="1" height="1" fill="#808080" />
<rect x="50" y="16" width="1" height="1" fill="#808080" />
<rect x="51" y="16" width="1" height="1" fill="#808080" />
<rect x="52" y="16" width="1" height="1" fill="#808080" />
<rect x="53" y="16" width="1" height="1" fill="#808080" />
<rect x="54" y="16" width="1" height="1" fill="#808080" />
<rect x="55" y="16" width="1" height="1" fill="#808080" />
<rect x="56" y="16" width="1" height="1" fill="#808080" />
<rect x="57" y="16" width="1" height="1" fill="#808080" />
<rect x="58" y="16" width="1" height="1" fill="#808080" />
<rect x="59" y="16" width="1" height="1" fill="#808080" />
<rect x="60" y="16" width="1" height="1" fill="#808080" />
<rect x="61" y="16" width="1" height="1" fill="#808080" />
<rect x="62" y="16" width="1" height="1" fill="#808080" />
<rect x="0" y="17" width="1" height="1" fill="#808080" />
<rect x="1" y="17" width="1" height="1" fill="#808080" />
<rect x="2" y="17" width="1" height="1" fill="#808080" />
<rect x="3" y="17" width="1" height="1" fill="#808080" />
<rect x="4" y="17" width="1" height="1" fill="#808080" />
<rect x="5" y="17" width="1" height="1" fill="#808080" />
<rect x="6" y="17" width="1" height="1" fill="#808080" />
<rect x="7" y="17" width="1" height="1" fill="#808080" />
<rect x="8" y="17" width="1" height="1" fill="#808080" />
<rect x="9" y="17" width="1" height="1" fill="#808080" />
<rect x="10" y="17" width="1" height="1" fill="#808080" />
<rect x="11" y="17" width="1" height="1" fill="#808080" />
<rect x="12" y="17" width="1" height="1" fill="#808080" />
<rect x="13" y="17" width="1" height="1" fill="#808080" />
<rect x="14" y="17" width="1" height="1" fill="#808080" />
<rect x="15" y="17" width="1" height="1" fill="#808080" />
<rect x="16" y="17" width="1" height="1" fill="#808080" />
<rect x="17" y="17" width="1" height="1" fill="#808080" />
<rect x="18" y="17" width="1" height="1" fill="#808080" />
<rect x="19" y="17" width="1" height="1" fill="#808080" />
<rect x="20" y="17" width="1" height="1" fill="#808080" />
<rect x="21" y="17" width="1" height="1" fill="#808080" />
<rect x="22" y="17" width="1" height="1" fill="#808080" />
<rect x="23" y="17" width="1" height="1" fill="#808080" />
<rect x="24" y="17" width="1" height="1" fill="#808080" />
<rect x="25" y="17" width="1" height="1" fill="#808080" />
<rect x="26" y="17" width="1" height="1" fill="#808080" />
<rect x="27" y="17" width="1" height="1" fill="#808080" />
<rect x="28" y="17" width="1" height="1" fill="#808080" />
<rect x="29" y="17" width="1" height="1" fill="#808080" />
<rect x="30" y="17" width="1" height="1" fill="#808080" />
<rect x="31" y="17" width="1" height="1" fill="#5C5C5C" />
<rect x="32" y="17" width="1" height="1" fill="#5C5C5C" />
<rect x="33" y="17" width="1" height="1" fill="#5C5C5C" />
<rect x="34" y="17" width="1" height="1" fill="#5C5C5C" />
<rect x="35" y="17" width="1" height="1" fill="#5C5C5C" />
<rect x="36" y="17" width="1" height="1" fill="#5C5C5C" />
<rect x="37" y="17" width="1" height="1" fill="#5C5C5C" />
<rect x="38" y="17" width="1" height="1" fill="#5C5C5C" />
<rect x="39" y="17" width="1" height="1" fill="#808080" />
<rect x="40" y="17" width="1" height="1" fill="#808080" />
<rect x="41" y="17" width="1" height="1" fill="#808080" />
<rect x="42" y="17" width="1" height="1" fill="#808080" />
<rect x="43" y="17" width="1" height="1" fill="#808080" />
<rect x="44" y="17" width="1" height="1" fill="#808080" />
<rect x="45" y="17" width="1" height="1" fill="#808080" />
<rect x="46" y="17" width="1" height="1" fill="#808080" />
<rect x="47" y="17" width="1" height="1" fill="#808080" />
<rect x="48" y="17" width="1" height="1" fill="#808080" />
<rect x="49" y="17" width="1" height="1" fill="#808080" />
<rect x="50" y="17" width="1" height="1" fill="#808080" />
<rect x="51" y="17" width="1" height="1" fill="#808080" />
<rect x="52" y="17" width="1" height="1" fill="#808080" />
<rect x="53" y="17" width="1" height="1" fill="#808080" />
<rect x="54" y="17" width="1" height="1" fill="#808080" />
<rect x="55" y="17" width="1" height="1" fill="#808080" />
<rect x="56" y="17" width="1" height="1" fill="#808080" />
<rect x="57" y="17" width="1" height="1" fill="#808080" />
<rect x="58" y="17" width="1" height="1" fill="#808080" />
<rect x="59" y="17" width="1" height="1" fill="#808080" />
<rect x="60" y="17" width="1" height="1" fill="#808080" />
<rect x="61" y="17" width="1" height="1" fill="#808080" />
<rect x="62" y="17" width="1" height="1" fill="#808080" />
<rect x="0" y="18" width="1" height="1" fill="#5C5C5C" />
<rect x="1" y="18" width="1" height="1" fill="#5C5C5C" />
<rect x="2" y="18" width="1" height="1" fill="#5C5C5C" />
<rect x="3" y="18" width="1" height="1" fill="#5C5C5C" />
<rect x="4" y="18" width="1" height="1" fill="#5C5C5C" />
<rect x="5" y="18" width="1" height="1" fill="#5C5C5C" />
<rect x="6" y="18" width="1" height="1" fill="#5C5C5C" />
<rect x="7" y="18" width="1" height="1" fill="#5C5C5C" />
<rect x="8" y="18" width="1" height="1" fill="#5C5C5C" />
<rect x="9" y="18" width="1" height="1" fill="#5C5C5C" />
<rect x="10" y="18" width="1" height="1" fill="#5C5C5C" />
<rect x="11" y="18" width="1" height="1" fill="#5C5C5C" />
<rect x="12" y="18" width="1" height="1" fill="#5C5C5C" />
<rect x="13" y="18" width="1" height="1" fill="#5C5C5C" />
<rect x="14" y="18" width="1" height="1" fill="#5C5C5C" />
<rect x="15" y="18" width="1" height="1" fill="#5C5C5C" />
<rect x="16" y="18" width="1" height="1" fill="#5C5C5C" />
<rect x="17" y="18" width="1" height="1" fill="#5C5C5C" />
<rect x="18" y="18" width="1" height="1" fill="#5C5C5C" />
<rect x="19" y="18" width="1" height="1" fill="#5C5C5C" />
<rect x="20" y="18" width="1" height="1" fill="#5C5C5C" />
<rect x="21" y="18" width="1" height="1" fill="#5C5C5C" />
<rect x="22" y="18" width="1" height="1" fill="#5C5C5C" />
<rect x="23" y="18" width="1" height="1" fill="#5C5C5C" />
<rect x="24" y="18" width="1" height="1" fill="#5C5C5C" />
<rect x="25" y="18" width="1" height="1" fill="#5C5C5C" />
<rect x="26" y="18" width="1" height="1" fill="#5C5C5C" />
<rect x="27" y="18" width="1" height="1" fill="#5C5C5C" />
<rect x="28" y="18" width="1" height="1" fill="#5C5C5C" />
<rect x="29" y="18" width="1" height="1" fill="#5C5C5C" />
<rect x="30" y="18" width="1" height="1" fill="#5C5C5C" />
<rect x="39" y="18" width="1" height="1" fill="#808080" />
<rect x="40" y="18" width="1" height="1" fill="#808080" />
<rect x="41" y="18" width="1" height="1" fill="#808080" />
<rect x="42" y="18" width="1" height="1" fill="#808080" />
<rect x="43" y="18" width="1" height="1" fill="#808080" />
<rect x="44" y="18" width="1" height="1" fill="#808080" />
<rect x="45" y="18" width="1" height="1" fill="#808080" />
<rect x="46" y="18" width="1" height="1" fill="#808080" />
<rect x="47" y="18" width="1" height="1" fill="#808080" />
<rect x="48" y="18" width="1" height="1" fill="#808080" />
<rect x="49" y="18" width="1" height="1" fill="#808080" />
<rect x="50" y="18" width="1" height="1" fill="#808080" />
<rect x="51" y="18" width="1" height="1" fill="#808080" />
<rect x="52" y="18" width="1" height="1" fill="#808080" />
<rect x="53" y="18" width="1" height="1" fill="#808080" />
<rect x="54" y="18" width="1" height="1" fill="#808080" />
<rect x="55" y="18" width="1" height="1" fill="#808080" />
<rect x="56" y="18" width="1" height="1" fill="#808080" />
<rect x="57" y="18" width="1" height="1" fill="#808080" />
<rect x="58" y="18" width="1" height="1" fill="#808080" />
<rect x="59" y="18" width="1" height="1" fill="#808080" />
<rect x="60" y="18" width="1" height="1" fill="#808080" />
<rect x="61" y="18" width="1" height="1" fill="#808080" />
<rect x="62" y="18" width="1" height="1" fill="#808080" />
<rect x="0" y="19" width="1" height="1" fill="#5C5C5C" />
<rect x="1" y="19" width="1" height="1" fill="#5C5C5C" />
<rect x="2" y="19" width="1" height="1" fill="#5C5C5C" />
<rect x="3" y="19" width="1" height="1" fill="#5C5C5C" />
<rect x="4" y="19" width="1" height="1" fill="#5C5C5C" />
<rect x="5" y="19" width="1" height="1" fill="#5C5C5C" />
<rect x="6" y="19" width="1" height="1" fill="#5C5C5C" />
<rect x="7" y="19" width="1" height="1" fill="#5C5C5C" />
<rect x="8" y="19" width="1" height="1" fill="#5C5C5C" />
<rect x="9" y="19" width="1" height="1" fill="#5C5C5C" />
<rect x="10" y="19" width="1" height="1" fill="#5C5C5C" />
<rect x="11" y="19" width="1" height="1" fill="#5C5C5C" />
<rect x="12" y="19" width="1" height="1" fill="#5C5C5C" />
<rect x="13" y="19" width="1" height="1" fill="#5C5C5C" />
<rect x="14" y="19" width="1" height="1" fill="#5C5C5C" />
<rect x="15" y="19" width="1" height="1" fill="#5C5C5C" />
<rect x="16" y="19" width="1" height="1" fill="#5C5C5C" />
<rect x="17" y="19" width="1" height="1" fill="#5C5C5C" />
<rect x="18" y="19" width="1" height="1" fill="#5C5C5C" />
<rect x="19" y="19" width="1" height="1" fill="#5C5C5C" />
<rect x="20" y="19" width="1" height="1" fill="#5C5C5C" />
<rect x="21" y="19" width="1" height="1" fill="#5C5C5C" />
<rect x="22" y="19" width="1" height="1" fill="#5C5C5C" />
<rect x="23" y="19" width="1" height="1" fill="#5C5C5C" />
<rect x="24" y="19" width="1" height="1" fill="#5C5C5C" />
<rect x="25" y="19" width="1" height="1" fill="#5C5C5C" />
<rect x="26" y="19" width="1" height="1" fill="#5C5C5C" />
<rect x="27" y="19" width="1" height="1" fill="#5C5C5C" />
<rect x="28" y="19" width="1" height="1" fill="#5C5C5C" />
<rect x="29" y="19" width="1" height="1" fill="#5C5C5C" />
<rect x="30" y="19" width="1" height="1" fill="#5C5C5C" />
<rect x="39" y="19" width="1" height="1" fill="#5C5C5C" />
<rect x="40" y="19" width="1" height="1" fill="#5C5C5C" />
<rect x="41" y="19" width="1" height="1" fill="#5C5C5C" />
<rect x="42" y="19" width="1" height="1" fill="#5C5C5C" />
<rect x="43" y="19" width="1" height="1" fill="#5C5C5C" />
<rect x="44" y="19" width="1" height="1" fill="#5C5C5C" />
<rect x="45" y="19" width="1" height="1" fill="#5C5C5C" />
<rect x="46" y="19" width="1" height="1" fill="#5C5C5C" />
<rect x="47" y="19" width="1" height="1" fill="#5C5C5C" />
<rect x="48" y="19" width="1" height="1" fill="#5C5C5C" />
<rect x="49" y="19" width="1" height="1" fill="#5C5C5C" />
<rect x="50" y="19" width="1" height="1" fill="#5C5C5C" />
<rect x="51" y="19" width="1" height="1" fill="#5C5C5C" />
<rect x="52" y="19" width="1" height="1" fill="#5C5C5C" />
<rect x="53" y="19" width="1" height="1" fill="#5C5C5C" />
<rect x="54" y="19" width="1" height="1" fill="#5C5C5C" />
<rect x="55" y="19" width="1" height="1" fill="#5C5C5C" />
<rect x="56" y="19" width="1" height="1" fill="#5C5C5C" />
<rect x="57" y="19" width="1" height="1" fill="#5C5C5C" />
<rect x="58" y="19" width="1" height="1" fill="#5C5C5C" />
<rect x="59" y="19" width="1" height="1" fill="#5C5C5C" />
<rect x="60" y="19" width="1" height="1" fill="#5C5C5C" />
<rect x="61" y="19" width="1" height="1" fill="#5C5C5C" />
<rect x="62" y="19" width="1" height="1" fill="#5C5C5C" />
<rect x="39" y="20" width="1" height="1" fill="#5C5C5C" />
<rect x="40" y="20" width="1" height="1" fill="#5C5C5C" />
<rect x="41" y="20" width="1" height="1" fill="#5C5C5C" />
<rect x="42" y="20" width="1" height="1" fill="#5C5C5C" />
<rect x="43" y="20" width="1" height="1" fill="#5C5C5C" />
<rect x="44" y="20" width="1" height="1" fill="#5C5C5C" />
<rect x="45" y="20" width="1" height="1" fill="#5C5C5C" />
<rect x="46" y="20" width="1" height="1" fill="#5C5C5C" />
<rect x="47" y="20" width="1" height="1" fill="#5C5C5C" />
<rect x="48" y="20" width="1" height="1" fill="#5C5C5C" />
<rect x="49" y="20" width="1" height="1" fill="#5C5C5C" />
<rect x="50" y="20" width="1" height="1" fill="#5C5C5C" />
<rect x="51" y="20" width="1" height="1" fill="#5C5C5C" />
<rect x="52" y="20" width="1" height="1" fill="#5C5C5C" />
<rect x="53" y="20" width="1" height="1" fill="#5C5C5C" />
<rect x="54" y="20" width="1" height="1" fill="#5C5C5C" />
<rect x="55" y="20" width="1" height="1" fill="#5C5C5C" />
<rect x="56" y="20" width="1" height="1" fill="#5C5C5C" />
<rect x="57" y="20" width="1" height="1" fill="#5C5C5C" />
<rect x="58" y="20" width="1" height="1" fill="#5C5C5C" />
<rect x="59" y="20" width="1" height="1" fill="#5C5C5C" />
<rect x="60" y="20" width="1" height="1" fill="#5C5C5C" />
<rect x="61" y="20" width="1" height="1" fill="#5C5C5C" />
<rect x="62" y="20" width="1" height="1" fill="#5C5C5C" />
</svg>